<?xml version="1.0" encoding="utf-8"?>
<!-- Generator: Adobe Illustrator 18.1.1, SVG Export Plug-In . SVG Version: 6.00 Build 0)  -->
<svg version="1.1" id="Layer_1" xmlns="http://www.w3.org/2000/svg" xmlns:xlink="http://www.w3.org/1999/xlink" x="0px" y="0px"
	 viewBox="0 0 44.5 44.5" enable-background="new 0 0 44.5 44.5" xml:space="preserve">
<g>
	<circle fill="#DBEF92" cx="22.2" cy="22.3" r="22.3"/>
	<g>
		<path fill="#FFFFFF" d="M42.5,14.5c0,2.7-1.4,5.5-4.3,8c-2.3,2-6.6,2-11.2,2c-5.2,0-10.9,0-15,3.2c-2.3,1.8-5,5.5-4.8,10
			c0,0.3,0,0.6,0,1c2.3,2.1,5,3.7,8,4.7c-2.2-1.7-3.3-3.7-3.5-5.9c-0.2-2.7,1.4-5,3-6.4c2.7-2.3,7.5-2.3,12.1-2.3
			c5.2,0,10.5,0,14.3-3.2c1.4-1.2,2.5-2.5,3.3-3.7c0-3.4-0.8-6.6-2.2-9.4C42.4,13.2,42.5,13.8,42.5,14.5z"/>
		<path fill="#FFFFFF" d="M18.2,0.4c0,0.1-0.1,0.2-0.1,0.2c-4.5,9-8.1,14.4-16.2,12.6c-0.6,1.3-1,2.7-1.4,4.2c1.6,0.4,3,0.5,4.2,0.5
			c9.3,0,13.7-8.4,17.3-15.5c0.4-0.7,0.7-1.6,1.2-2.4c-0.3,0-0.7,0-1,0C20.9,0,19.5,0.1,18.2,0.4z"/>
	</g>
</g>
</svg>
