<?xml version="1.0" encoding="utf-8"?>
<!-- Generator: Adobe Illustrator 18.1.1, SVG Export Plug-In . SVG Version: 6.00 Build 0)  -->
<svg version="1.1" id="Layer_1" xmlns="http://www.w3.org/2000/svg" xmlns:xlink="http://www.w3.org/1999/xlink" x="0px" y="0px"
	 viewBox="0 0 162 176" enable-background="new 0 0 162 176" xml:space="preserve">
<path fill="#FF974F" d="M35.5,77.3C15.9,77.3,0,93.2,0,112.9v47.9h71.1v-47.9C71.1,93.2,55.2,77.3,35.5,77.3z"/>
<path fill="#FF974F" d="M126.5,77.3c-19.6,0-35.5,15.9-35.5,35.5v47.9H162v-47.9C162,93.2,146.1,77.3,126.5,77.3z"/>
<path fill="#FF974F" d="M81,0C43.2,0,12.5,30.7,12.5,68.5v92.3h136.9V68.5C149.5,30.7,118.8,0,81,0z"/>
<path fill="#FFD393" d="M81,82.6c-18.4,0-33.3,14.9-33.3,33.3v44.9h66.6v-44.9C114.3,97.5,99.4,82.6,81,82.6z"/>
<path fill="#FF974F" d="M19.8,78.6v77.5c0,11,8.9,19.9,19.9,19.9s19.9-8.9,19.9-19.9V78.6H19.8z"/>
<path fill="#FF974F" d="M102.3,78.6v77.5c0,11,8.9,19.9,19.9,19.9c11,0,19.9-8.9,19.9-19.9V78.6H102.3z"/>
</svg>
