<?xml version="1.0" encoding="utf-8"?>
<!-- Generator: Adobe Illustrator 18.1.1, SVG Export Plug-In . SVG Version: 6.00 Build 0)  -->
<svg version="1.1" id="Layer_1" xmlns="http://www.w3.org/2000/svg" xmlns:xlink="http://www.w3.org/1999/xlink" x="0px" y="0px"
	 viewBox="0 0 162.5 161.2" enable-background="new 0 0 162.5 161.2" xml:space="preserve">
<path fill="#FF974F" d="M35.6,77.5C16,77.5,0,93.5,0,113.2v48h71.3v-48C71.3,93.5,55.3,77.5,35.6,77.5z"/>
<path fill="#FF974F" d="M126.9,77.5c-19.7,0-35.6,16-35.6,35.6v48h71.3v-48C162.5,93.5,146.5,77.5,126.9,77.5z"/>
<path fill="#FF974F" d="M81.3,0C43.3,0,12.6,30.7,12.6,68.7v92.6h137.3V68.7C149.9,30.7,119.2,0,81.3,0z"/>
<path fill="#FFD393" d="M81.3,82.8c-18.4,0-33.4,15-33.4,33.4v45h66.8v-45C114.6,97.8,99.7,82.8,81.3,82.8z"/>
</svg>
