<?xml version="1.0" encoding="utf-8"?>
<!-- Generator: Adobe Illustrator 18.1.1, SVG Export Plug-In . SVG Version: 6.00 Build 0)  -->
<svg version="1.1" id="Layer_1" xmlns="http://www.w3.org/2000/svg" xmlns:xlink="http://www.w3.org/1999/xlink" x="0px" y="0px"
	 viewBox="0 0 162.5 176.5" enable-background="new 0 0 162.5 176.5" xml:space="preserve">
<g>
	<g>
		<path fill="#FF974F" d="M35.6,77.5c19.7,0,35.6,16,35.6,35.6H0C0,93.5,16,77.5,35.6,77.5z"/>
		<rect x="0" y="113.2" fill="#FF974F" width="71.3" height="48"/>
	</g>
	<g>
		<path fill="#FF974F" d="M126.9,77.5c19.7,0,35.6,16,35.6,35.6H91.2C91.2,93.5,107.2,77.5,126.9,77.5z"/>
		<rect x="91.2" y="113.2" fill="#FF974F" width="71.3" height="48"/>
	</g>
</g>
<g>
	<path fill="#FF974F" d="M81.3,0c37.9,0,68.7,30.7,68.7,68.7H12.6C12.6,30.7,43.3,0,81.3,0z"/>
	<rect x="12.6" y="68.7" fill="#FF974F" width="137.3" height="92.6"/>
</g>
<g>
	<path fill="#FFD393" d="M81.3,82.8c18.4,0,33.4,15,33.4,33.4H47.9C47.9,97.8,62.8,82.8,81.3,82.8z"/>
	<rect x="47.9" y="116.2" fill="#FFD393" width="66.8" height="45"/>
</g>
<g>
	<g>
		<path fill="#FF974F" d="M39.8,176.5c11,0,20-9,20-20h-40C19.8,167.6,28.8,176.5,39.8,176.5z"/>
		<rect x="19.8" y="78.8" fill="#FF974F" width="40" height="77.7"/>
	</g>
	<g>
		<path fill="#FF974F" d="M122.7,176.5c11,0,20-9,20-20h-40C102.7,167.6,111.6,176.5,122.7,176.5z"/>
		<rect x="102.7" y="78.8" fill="#FF974F" width="40" height="77.7"/>
	</g>
</g>
</svg>
