<?xml version="1.0" encoding="utf-8"?>
<!-- Generator: Adobe Illustrator 18.1.1, SVG Export Plug-In . SVG Version: 6.00 Build 0)  -->
<svg version="1.1" id="Layer_1" xmlns="http://www.w3.org/2000/svg" xmlns:xlink="http://www.w3.org/1999/xlink" x="0px" y="0px"
	 viewBox="0 0 74.4 16.2" enable-background="new 0 0 74.4 16.2" xml:space="preserve">
<path fill="#512518" d="M8.2,6c3.5,0,6.4,2.1,7.6,5.1c0.4-0.9,0.6-1.9,0.6-3c0-4.5-3.7-8.1-8.2-8.1S0,3.6,0,8.1c0,1.1,0.2,2.1,0.6,3
	C1.8,8.1,4.7,6,8.2,6z"/>
<path fill="#512518" d="M66.2,6c3.5,0,6.4,2.1,7.6,5.1c0.4-0.9,0.6-1.9,0.6-3c0-4.5-3.7-8.1-8.2-8.1S58,3.6,58,8.1
	c0,1.1,0.2,2.1,0.6,3C59.8,8.1,62.7,6,66.2,6z"/>
</svg>
