<?xml version="1.0" encoding="utf-8"?>
<!-- Generator: Adobe Illustrator 18.1.1, SVG Export Plug-In . SVG Version: 6.00 Build 0)  -->
<svg version="1.1" id="Layer_1" xmlns="http://www.w3.org/2000/svg" xmlns:xlink="http://www.w3.org/1999/xlink" x="0px" y="0px"
	 viewBox="0 0 128.5 42.4" enable-background="new 0 0 128.5 42.4" xml:space="preserve">
<path fill="#111111" d="M128.4,2.6c-0.1,0-12.4-2.2-23.7-2.2c-8,0-16.7,1.4-21.9,2.3c-0.7,0.1-1.7,0.3-2.7,0.5
	c-1.9,0.4-4.3,0.8-6.8,1.2v0c0,0,0,0,0,0c-2.8,0.4-5.9,0.8-8.7,0.8c-4.8,0-9.7-1.2-12.3-1.8c-0.3-0.1-0.6-0.1-0.8-0.2
	C47.4,2.2,36.4,0,22.5,0C12,0,0.3,1.9,0.2,1.9L0,2v9l0,0.1l0.1,0c0,0,1.2,0.4,2,2.7c0.2,0.5,0.5,1.6,0.8,3c1.3,4.8,3.6,13.9,7,18.2
	c2.6,3.4,9.9,7,19.7,7c11.3,0,14.6-2.3,17.3-4.1c6.2-4.2,10.5-15.8,11.9-19.6c0.1-0.3,0.2-0.5,0.3-0.7c0.4-1.2,0.8-2.3,1.4-2.9
	c0.5-0.6,2-1.2,3.9-1.2c1.5,0,2.9,0.1,3.7,0.8c0.9,0.8,1.5,2.7,1.8,3.8c0.1,0.2,0.1,0.3,0.1,0.4c1.3,3.8,4.8,13.2,9.8,17.9
	c4.1,3.9,9.8,5.8,17.4,5.8c10.5,0,17.7-3.6,20.9-7c1.6-1.7,3.2-4.6,4.6-8.7c1.2-3.4,2.1-7,2.7-9.3c0.3-1.1,0.5-1.9,0.6-2.4
	c0.8-2.5,2.3-3.2,2.3-3.2l0.1-0.1V2.6L128.4,2.6z M49.1,32.9c-4.1,5.2-7.9,7.5-19.4,7.5c-7,0-13.8-2.2-17.4-5.7
	c-5.5-5.2-5.9-18-5.9-21.8c0-4.6,2.3-6.8,3-7.3c0.9-0.7,2.3-1.5,5.3-2.1c0.3-0.1,0.5-0.1,0.5-0.1l0,0c2.4-0.4,5.7-0.7,10.4-0.7
	c10.9,0,24.2,1.6,28.7,6.2C57.9,12.3,54.1,26.6,49.1,32.9z M97.6,40.5c-9.5,0-13.8-3-17.1-6.3c-5.5-5.5-8.6-19.2-6.5-24
	c1.9-4.3,12.8-6.9,29.2-6.9c5.4,0,9.1,0.3,11.6,0.9l0,0c0,0,0.1,0,0.3,0.1c3.1,0.8,4.5,2,5.5,3.7c2.2,3.8,1.6,19.3-3.8,25.9
	C113.4,38.2,106.5,40.5,97.6,40.5z"/>
</svg>
