<?xml version="1.0" encoding="utf-8"?>
<!-- Generator: Adobe Illustrator 18.1.1, SVG Export Plug-In . SVG Version: 6.00 Build 0)  -->
<svg version="1.1" id="Layer_1" xmlns="http://www.w3.org/2000/svg" xmlns:xlink="http://www.w3.org/1999/xlink" x="0px" y="0px"
	 viewBox="0 0 148.9 205.7" enable-background="new 0 0 148.9 205.7" xml:space="preserve">
<g>
	<path fill="#FF974F" d="M74.5,205.7c41.1,0,74.5-33.3,74.5-74.5H0C0,172.4,33.3,205.7,74.5,205.7z"/>
	<path fill="#EA4E33" d="M66.9,174.3v14.8c0,4.2,3.4,7.6,7.6,7.6c4.2,0,7.6-3.4,7.6-7.6v-14.8H66.9z"/>
	<g>
		<path fill="#FF974F" d="M64.7,78.3H0C0,78.3,1.6,0,19.7,0C37.7,0,64.7,78.3,64.7,78.3z"/>
		<path fill="#FF974F" d="M148.9,78.3H84.3c0,0,26.9-78.3,45-78.3C147.4,0,148.9,78.3,148.9,78.3z"/>
	</g>
	<rect x="0" y="78.3" fill="#FF974F" width="148.9" height="52.9"/>
	<g>
		<circle fill="#512518" cx="45.7" cy="136.6" r="8.1"/>
		<circle fill="#512518" cx="103.3" cy="136.6" r="8.1"/>
	</g>
	<path fill="#FFD393" d="M98.7,161.3L74.5,137l-24.2,24.2c-6.7,6.7-6.7,17.5,0,24.2s17.5,6.7,24.2,0c6.7,6.7,17.5,6.7,24.2,0
		S105.4,168,98.7,161.3z"/>
	<path fill="#512518" d="M83.3,167.8c-2.5-2.5-6.4-2.5-8.9,0c-2.5-2.5-6.4-2.5-8.9,0c-2.5,2.5-2.5,6.4,0,8.9l8.9,8.9l8.9-8.9
		C85.8,174.2,85.8,170.2,83.3,167.8z"/>
	<rect x="64.7" y="78.3" fill="#FFD393" width="19.6" height="76.1"/>
</g>
</svg>
