<?xml version="1.0" encoding="utf-8"?>
<!-- Generator: Adobe Illustrator 18.1.1, SVG Export Plug-In . SVG Version: 6.00 Build 0)  -->
<svg version="1.1" id="Layer_1" xmlns="http://www.w3.org/2000/svg" xmlns:xlink="http://www.w3.org/1999/xlink" x="0px" y="0px"
	 viewBox="0 0 150 205" enable-background="new 0 0 150 205" xml:space="preserve">
<g>
	<path fill="#FF974F" d="M130.2,0C112,0,84.9,78.1,84.9,78.1H65.1C65.1,78.1,38,0,19.8,0C1.6,0,0,78.1,0,78.1v52.7
		c0,41,33.6,74.2,75,74.2s75-33.2,75-74.2V78.1C150,78.1,148.4,0,130.2,0z"/>
	<path fill="#EA4E33" d="M67.3,173.7v14.7c0,4.2,3.4,7.6,7.7,7.6c4.2,0,7.7-3.4,7.7-7.6v-14.7H67.3z"/>
	<g>
		<ellipse fill="#512518" cx="46" cy="136.1" rx="8.2" ry="8.1"/>
		<ellipse fill="#512518" cx="104" cy="136.1" rx="8.2" ry="8.1"/>
	</g>
	<path fill="#FFD393" d="M99.4,160.7L75,136.6l-24.4,24.2c-6.7,6.7-6.7,17.5,0,24.2c6.7,6.7,17.7,6.7,24.4,0
		c6.7,6.7,17.7,6.7,24.4,0C106.2,178.2,106.2,167.4,99.4,160.7z"/>
	<path fill="#512518" d="M83.9,167.2c-2.5-2.4-6.5-2.4-8.9,0c-2.5-2.4-6.5-2.4-8.9,0c-2.5,2.4-2.5,6.4,0,8.8l8.9,8.8l8.9-8.8
		C86.4,173.6,86.4,169.6,83.9,167.2z"/>
	<rect x="65.1" y="78.1" fill="#FFD393" width="19.7" height="75.9"/>
</g>
</svg>
