<?xml version="1.0" encoding="utf-8"?>
<!-- Generator: Adobe Illustrator 18.1.1, SVG Export Plug-In . SVG Version: 6.00 Build 0)  -->
<svg version="1.1" id="Layer_1" xmlns="http://www.w3.org/2000/svg" xmlns:xlink="http://www.w3.org/1999/xlink" x="0px" y="0px"
	 viewBox="0 0 68 96.1" enable-background="new 0 0 68 96.1" xml:space="preserve">
<path fill="#FFFFFF" d="M34,0L0,91.5c0,2.5,15.2,4.6,34,4.6s34-2.1,34-4.6L34,0z"/>
<circle fill="#EFA8A8" cx="31.5" cy="62.1" r="5.1"/>
<circle fill="#A9BDED" cx="39.1" cy="43" r="5.1"/>
<circle fill="#A9BDED" cx="51.8" cy="75.1" r="5.1"/>
<circle fill="#FFAF57" cx="31.5" cy="78.9" r="5.1"/>
<path fill="#EFA8A8" d="M42.8,88.2c-2.8,0-5.1,2.3-5.1,5.1c0,1,0.3,2,0.8,2.8c3-0.1,6-0.2,8.7-0.3c0.4-0.7,0.7-1.6,0.7-2.4
	C47.8,90.5,45.6,88.2,42.8,88.2z"/>
<path fill="#A9BDED" d="M14.5,95.3c3,0.3,6.4,0.5,10.1,0.7c-0.1-2.7-2.3-4.9-5.1-4.9C17,91,14.9,92.9,14.5,95.3z"/>
<path fill="#EFA8A8" d="M4.5,93.8c0.4-0.7,0.6-1.5,0.6-2.3c0-2.2-1.4-4-3.3-4.8L0,91.5C0,92.3,1.6,93.1,4.5,93.8z"/>
<path fill="#A9BDED" d="M11.1,77.4c2.8,0,5.1-2.3,5.1-5.1c0-2.8-2.3-5.1-5.1-5.1c-0.8,0-1.6,0.2-2.3,0.6l-2.4,6.5
	C7.2,76.1,9,77.4,11.1,77.4z"/>
<path fill="#FFAF57" d="M16.2,58.2c2.8,0,5.1-2.3,5.1-5.1s-2.3-5.1-5.1-5.1c0,0,0,0,0,0L12.8,57C13.7,57.7,14.9,58.2,16.2,58.2z"/>
<path fill="#A9BDED" d="M31,8.1c0.5,0.2,1,0.3,1.6,0.3c1.6,0,2.9-0.7,3.9-1.8L34,0L31,8.1z"/>
<path fill="#EFA8A8" d="M22.8,32.8c2.8,0,5.1-2.3,5.1-5.1c0-1.9-1-3.5-2.6-4.4l-3.5,9.4C22.2,32.7,22.5,32.8,22.8,32.8z"/>
<path fill="#FFAF57" d="M40.2,16.7c-0.4-0.1-0.7-0.1-1.1-0.1c-2.8,0-5.1,2.3-5.1,5.1c0,2.8,2.3,5.1,5.1,5.1c1.7,0,3.2-0.8,4.1-2.1
	L40.2,16.7z"/>
<path fill="#FFAF57" d="M52.9,51c-0.4-0.1-0.8-0.2-1.2-0.2c-2.8,0-5.1,2.3-5.1,5.1c0,2.8,2.3,5.1,5.1,5.1c1.7,0,3.2-0.8,4.1-2.1
	L52.9,51z"/>
<path fill="#FFAF57" d="M60.7,85.2c-2.8,0-5.1,2.3-5.1,5.1c0,1.9,1.1,3.6,2.7,4.5c2.5-0.3,4.6-0.7,6.2-1.2c0.8-0.9,1.2-2,1.2-3.3
	C65.8,87.4,63.5,85.2,60.7,85.2z"/>
</svg>
