<?xml version="1.0" encoding="utf-8"?>
<!-- Generator: Adobe Illustrator 18.1.1, SVG Export Plug-In . SVG Version: 6.00 Build 0)  -->
<svg version="1.1" id="Layer_1" xmlns="http://www.w3.org/2000/svg" xmlns:xlink="http://www.w3.org/1999/xlink" x="0px" y="0px"
	 viewBox="0 0 54.7 25" enable-background="new 0 0 54.7 25" xml:space="preserve">
<g>
	<path fill="#EB824F" d="M2.1,2.1c-2.8,2.9-2.8,7.5,0,10.3c-2.8,2.9-2.8,7.5,0,10.3s7.4,2.9,10.2,0l10.2-10.3L12.4,2.1
		C9.5-0.7,4.9-0.7,2.1,2.1z"/>
	<path fill="#EB824F" d="M52.6,2.1c2.8,2.9,2.8,7.5,0,10.3c2.8,2.9,2.8,7.5,0,10.3c-2.8,2.9-7.4,2.9-10.2,0L32.1,12.5L42.4,2.1
		C45.2-0.7,49.8-0.7,52.6,2.1z"/>
</g>
<rect x="11.3" y="5.2" fill="#EB824F" width="32.1" height="14.5"/>
</svg>
